<svg xmlns ="http://www.w3.org/2000/svg" xmlns:xlink ="http://www.w3.org/1999/xlink"><polygon points ="0,200 0,100 1,99 2,98 3,97 4,96 5,97 6,96 7,95 8,94 9,95 10,94 11,93 12,94 13,95 14,94 15,93 16,92 17,93 18,92 19,93 20,92 21,93 22,92 23,91 24,92 25,91 26,90 27,91 28,92 29,91 30,90 31,89 32,90 33,91 34,92 35,93 36,92 37,91 38,92 39,91 40,92 41,91 42,90 43,91 44,90 45,91 46,90 47,89 48,90 49,89 50,88 51,89 52,88 53,87 54,88 55,87 56,86 57,85 58,84 59,83 60,82 61,81 62,80 63,79 64,78 65,77 66,76 67,77 68,78 69,79 70,80 71,79 72,80 73,81 74,80 75,79 76,78 77,77 78,76 79,77 80,76 81,75 82,76 83,77 84,78 85,77 86,76 87,77 88,78 89,77 90,78 91,79 92,80 93,79 94,78 95,77 96,78 97,79 98,80 99,79 100,80 101,79 102,78 103,77 104,76 105,77 106,76 107,77 108,78 109,77 110,78 111,79 112,80 113,81 114,80 115,81 116,82 117,81 118,82 119,81 120,80 121,79 122,78 123,79 124,78 125,79 126,80 127,81 128,82 129,83 130,84 131,85 132,86 133,87 134,88 135,89 136,90 137,91 138,90 139,89 140,88 141,89 142,88 143,89 144,88 145,87 146,88 147,87 148,86 149,87 150,88 151,89 152,90 153,89 154,90 155,91 156,90 157,91 158,92 159,93 160,92 161,91 162,92 163,91 164,90 165,89 166,88 167,87 168,88 169,89 170,88 171,87 172,86 173,85 174,86 175,87 176,88 177,87 178,86 179,87 180,88 181,89 182,90 183,89 184,88 185,87 186,86 187,85 188,84 189,85 190,84 191,83 192,82 193,83 194,84 195,85 196,84 197,85 198,86 199,87 200,86 201,87 202,86 203,87 204,88 205,87 206,86 207,87 208,88 209,89 210,90 211,89 212,88 213,87 214,86 215,87 216,88 217,87 218,86 219,85 220,84 221,85 222,84 223,85 224,84 225,85 226,86 227,85 228,84 229,85 230,84 231,83 232,82 233,81 234,80 235,79 236,80 237,81 238,80 239,79 240,78 241,77 242,76 243,77 244,78 245,79 246,80 247,79 248,80 249,79 250,80 251,81 252,80 253,81 254,80 255,81 256,82 257,81 258,82 259,83 260,82 261,81 262,82 263,81 264,80 265,81 266,82 267,81 268,80 269,79 270,78 271,79 272,78 273,79 274,80 275,81 276,80 277,79 278,80 279,81 280,80 281,81 282,80 283,81 284,82 285,81 286,82 287,81 288,82 289,81 290,82 291,81 292,80 293,79 294,78 295,77 296,78 297,77 298,78 299,79 300,80 301,79 302,78 303,79 304,78 305,77 306,78 307,79 308,80 309,79 310,80 311,81 312,80 313,81 314,80 315,81 316,80 317,81 318,82 319,81 320,80 321,79 322,80 323,79 324,80 325,79 326,78 327,79 328,80 329,81 330,80 331,81 332,82 333,83 334,82 335,81 336,82 337,83 338,82 339,83 340,82 341,81 342,82 343,81 344,80 345,81 346,82 347,81 348,82 349,81 350,82 351,81 352,80 353,81 354,82 355,83 356,82 357,83 358,84 359,83 360,82 361,83 362,84 363,85 364,84 365,85 366,86 367,85 368,86 369,85 370,86 371,87 372,86 373,87 374,86 375,87 376,88 377,89 378,90 379,89 380,88 381,89 382,90 383,89 384,88 385,89 386,88 387,87 388,86 389,87 390,86 391,85 392,86 393,87 394,88 395,87 396,88 397,89 398,88 399,89 400,200 " style ="fill:rgb(18,55,14);stroke:rgb(0,0,0)"></polygon><polygon points ="0,200 0,100 1,99 2,100 3,101 4,102 5,103 6,104 7,103 8,104 9,105 10,106 11,107 12,106 13,107 14,106 15,107 16,108 17,107 18,106 19,107 20,108 21,107 22,106 23,107 24,108 25,109 26,108 27,109 28,110 29,111 30,112 31,111 32,110 33,111 34,110 35,111 36,112 37,113 38,112 39,111 40,112 41,113 42,112 43,111 44,112 45,111 46,112 47,113 48,114 49,115 50,114 51,113 52,114 53,115 54,116 55,115 56,116 57,115 58,114 59,115 60,114 61,113 62,114 63,113 64,112 65,111 66,110 67,109 68,110 69,109 70,108 71,109 72,110 73,111 74,112 75,113 76,112 77,113 78,114 79,113 80,114 81,115 82,116 83,115 84,114 85,113 86,112 87,111 88,112 89,111 90,112 91,111 92,110 93,111 94,112 95,113 96,112 97,111 98,110 99,109 100,110 101,111 102,112 103,111 104,112 105,113 106,112 107,111 108,112 109,113 110,112 111,113 112,114 113,113 114,114 115,113 116,114 117,115 118,116 119,115 120,116 121,117 122,116 123,117 124,116 125,115 126,114 127,115 128,114 129,115 130,114 131,115 132,114 133,115 134,114 135,113 136,112 137,111 138,110 139,109 140,108 141,109 142,110 143,111 144,112 145,113 146,112 147,113 148,112 149,113 150,112 151,111 152,112 153,111 154,110 155,109 156,110 157,109 158,110 159,111 160,112 161,113 162,112 163,113 164,112 165,113 166,114 167,113 168,114 169,113 170,112 171,113 172,114 173,115 174,116 175,115 176,116 177,117 178,118 179,119 180,120 181,121 182,122 183,121 184,120 185,119 186,120 187,121 188,122 189,123 190,122 191,121 192,120 193,121 194,120 195,121 196,120 197,119 198,118 199,117 200,118 201,117 202,118 203,117 204,116 205,117 206,116 207,117 208,116 209,117 210,118 211,117 212,118 213,117 214,116 215,115 216,114 217,115 218,116 219,117 220,116 221,115 222,116 223,115 224,116 225,115 226,114 227,113 228,112 229,113 230,114 231,113 232,114 233,113 234,112 235,111 236,110 237,109 238,110 239,109 240,108 241,109 242,108 243,109 244,110 245,111 246,112 247,111 248,110 249,111 250,110 251,111 252,112 253,113 254,114 255,115 256,114 257,113 258,112 259,111 260,110 261,109 262,108 263,109 264,108 265,107 266,106 267,107 268,108 269,109 270,110 271,111 272,112 273,113 274,112 275,113 276,114 277,115 278,116 279,115 280,116 281,117 282,118 283,119 284,120 285,119 286,120 287,119 288,118 289,119 290,120 291,119 292,118 293,119 294,120 295,119 296,120 297,121 298,120 299,121 300,120 301,119 302,118 303,119 304,118 305,117 306,116 307,115 308,116 309,117 310,118 311,119 312,120 313,119 314,120 315,121 316,120 317,121 318,122 319,121 320,122 321,121 322,122 323,123 324,122 325,123 326,124 327,125 328,124 329,123 330,122 331,123 332,122 333,123 334,122 335,123 336,122 337,121 338,122 339,121 340,120 341,121 342,122 343,123 344,122 345,121 346,120 347,121 348,122 349,121 350,120 351,121 352,120 353,119 354,120 355,121 356,120 357,119 358,118 359,119 360,118 361,117 362,116 363,117 364,118 365,119 366,120 367,119 368,120 369,119 370,120 371,119 372,120 373,119 374,120 375,121 376,120 377,121 378,122 379,123 380,122 381,123 382,122 383,123 384,122 385,123 386,122 387,121 388,122 389,123 390,122 391,121 392,122 393,123 394,124 395,125 396,126 397,127 398,126 399,125 400,200 " style ="fill:rgb(83,5,216);stroke:rgb(0,0,116)"></polygon><polygon points ="0,200 0,100 1,99 2,98 3,97 4,96 5,95 6,96 7,97 8,98 9,99 10,100 11,101 12,100 13,99 14,98 15,99 16,100 17,99 18,98 19,99 20,100 21,99 22,100 23,101 24,102 25,101 26,102 27,101 28,102 29,103 30,104 31,105 32,106 33,105 34,104 35,105 36,104 37,105 38,104 39,105 40,104 41,103 42,102 43,103 44,104 45,105 46,104 47,105 48,104 49,105 50,104 51,105 52,104 53,105 54,106 55,105 56,106 57,107 58,108 59,109 60,108 61,109 62,108 63,109 64,108 65,107 66,108 67,107 68,108 69,107 70,106 71,107 72,108 73,107 74,106 75,107 76,106 77,105 78,106 79,107 80,106 81,107 82,108 83,107 84,108 85,107 86,108 87,107 88,106 89,105 90,106 91,107 92,106 93,105 94,106 95,107 96,106 97,107 98,108 99,109 100,110 101,111 102,112 103,111 104,110 105,111 106,112 107,111 108,110 109,111 110,112 111,113 112,112 113,113 114,114 115,113 116,114 117,113 118,112 119,113 120,114 121,113 122,112 123,111 124,110 125,111 126,112 127,113 128,114 129,115 130,116 131,115 132,116 133,115 134,114 135,113 136,114 137,115 138,114 139,113 140,112 141,111 142,112 143,113 144,114 145,115 146,114 147,115 148,114 149,113 150,112 151,113 152,112 153,113 154,112 155,113 156,114 157,113 158,112 159,113 160,112 161,111 162,110 163,109 164,108 165,107 166,106 167,107 168,106 169,107 170,108 171,109 172,108 173,109 174,108 175,109 176,110 177,111 178,112 179,111 180,112 181,111 182,110 183,111 184,112 185,113 186,112 187,113 188,114 189,115 190,114 191,113 192,114 193,115 194,114 195,115 196,114 197,115 198,116 199,117 200,118 201,117 202,116 203,115 204,114 205,113 206,112 207,113 208,112 209,113 210,114 211,113 212,112 213,111 214,112 215,111 216,112 217,113 218,112 219,111 220,112 221,111 222,110 223,111 224,110 225,111 226,110 227,109 228,110 229,111 230,112 231,113 232,112 233,111 234,112 235,111 236,110 237,111 238,112 239,111 240,110 241,111 242,110 243,111 244,112 245,113 246,114 247,115 248,116 249,117 250,116 251,117 252,116 253,117 254,118 255,117 256,116 257,115 258,116 259,117 260,116 261,117 262,118 263,117 264,116 265,117 266,116 267,117 268,116 269,117 270,118 271,117 272,116 273,117 274,116 275,117 276,116 277,115 278,114 279,113 280,114 281,115 282,116 283,115 284,114 285,113 286,114 287,115 288,114 289,113 290,114 291,115 292,116 293,115 294,114 295,113 296,114 297,113 298,114 299,115 300,114 301,113 302,114 303,113 304,114 305,113 306,112 307,113 308,114 309,115 310,116 311,117 312,116 313,117 314,116 315,117 316,118 317,117 318,116 319,117 320,118 321,117 322,116 323,117 324,118 325,117 326,116 327,117 328,116 329,115 330,116 331,117 332,116 333,117 334,116 335,115 336,114 337,113 338,114 339,113 340,112 341,111 342,110 343,111 344,110 345,111 346,110 347,111 348,110 349,111 350,112 351,113 352,114 353,113 354,112 355,111 356,112 357,111 358,110 359,109 360,110 361,111 362,112 363,111 364,112 365,113 366,112 367,111 368,112 369,113 370,114 371,113 372,112 373,111 374,110 375,109 376,110 377,111 378,112 379,113 380,114 381,115 382,116 383,117 384,116 385,115 386,114 387,115 388,116 389,117 390,116 391,115 392,114 393,115 394,116 395,115 396,114 397,113 398,112 399,111 400,200 " style ="fill:rgb(4,205,65);stroke:rgb(0,105,0)"></polygon><polygon points ="0,200 0,100 1,99 2,100 3,99 4,98 5,99 6,98 7,97 8,98 9,97 10,98 11,97 12,96 13,97 14,98 15,99 16,100 17,99 18,100 19,101 20,102 21,103 22,104 23,105 24,104 25,103 26,102 27,101 28,100 29,101 30,100 31,99 32,98 33,99 34,100 35,99 36,98 37,97 38,96 39,97 40,96 41,95 42,94 43,93 44,92 45,91 46,90 47,91 48,90 49,91 50,90 51,89 52,88 53,87 54,86 55,87 56,86 57,85 58,84 59,85 60,86 61,87 62,86 63,87 64,86 65,85 66,84 67,85 68,84 69,85 70,86 71,85 72,84 73,83 74,84 75,85 76,84 77,85 78,86 79,87 80,86 81,85 82,86 83,87 84,86 85,85 86,86 87,85 88,84 89,83 90,84 91,83 92,82 93,81 94,82 95,81 96,82 97,81 98,80 99,81 100,80 101,81 102,82 103,83 104,84 105,85 106,84 107,85 108,86 109,85 110,86 111,87 112,86 113,87 114,86 115,87 116,88 117,87 118,86 119,85 120,84 121,83 122,84 123,83 124,84 125,83 126,82 127,81 128,82 129,81 130,80 131,81 132,80 133,79 134,80 135,81 136,80 137,81 138,82 139,81 140,80 141,79 142,78 143,79 144,80 145,79 146,78 147,77 148,76 149,77 150,78 151,77 152,76 153,75 154,76 155,77 156,76 157,75 158,76 159,75 160,76 161,75 162,74 163,73 164,72 165,73 166,72 167,71 168,70 169,69 170,70 171,71 172,72 173,73 174,72 175,71 176,72 177,73 178,72 179,73 180,72 181,73 182,72 183,73 184,72 185,73 186,74 187,75 188,74 189,75 190,74 191,75 192,74 193,73 194,74 195,73 196,72 197,71 198,70 199,71 200,72 201,73 202,74 203,75 204,74 205,73 206,72 207,73 208,74 209,73 210,74 211,73 212,74 213,73 214,74 215,75 216,74 217,75 218,76 219,77 220,76 221,77 222,76 223,77 224,76 225,77 226,76 227,77 228,76 229,77 230,76 231,77 232,78 233,77 234,78 235,77 236,76 237,77 238,76 239,75 240,74 241,75 242,74 243,75 244,76 245,77 246,78 247,77 248,78 249,79 250,80 251,79 252,80 253,81 254,80 255,79 256,80 257,81 258,80 259,79 260,80 261,81 262,80 263,79 264,80 265,79 266,80 267,81 268,82 269,81 270,80 271,81 272,82 273,83 274,82 275,81 276,82 277,83 278,84 279,85 280,86 281,87 282,88 283,87 284,88 285,89 286,88 287,87 288,86 289,87 290,86 291,85 292,86 293,87 294,86 295,85 296,84 297,83 298,82 299,81 300,80 301,81 302,80 303,81 304,82 305,81 306,80 307,81 308,80 309,79 310,80 311,81 312,82 313,83 314,84 315,85 316,84 317,85 318,84 319,83 320,82 321,81 322,82 323,83 324,84 325,83 326,82 327,81 328,80 329,79 330,80 331,81 332,80 333,79 334,78 335,79 336,80 337,79 338,78 339,77 340,76 341,75 342,76 343,75 344,74 345,75 346,74 347,73 348,72 349,71 350,72 351,73 352,74 353,73 354,72 355,73 356,72 357,71 358,70 359,69 360,68 361,67 362,66 363,65 364,66 365,67 366,66 367,67 368,68 369,67 370,68 371,67 372,68 373,67 374,66 375,65 376,64 377,65 378,64 379,65 380,64 381,65 382,64 383,65 384,66 385,67 386,68 387,69 388,68 389,69 390,68 391,67 392,66 393,67 394,68 395,69 396,70 397,71 398,72 399,73 400,200 " style ="fill:rgb(21,195,6);stroke:rgb(0,95,0)"></polygon><polygon points ="0,200 0,100 1,101 2,100 3,101 4,102 5,101 6,100 7,101 8,100 9,101 10,102 11,103 12,104 13,103 14,102 15,103 16,104 17,105 18,104 19,103 20,102 21,103 22,102 23,103 24,102 25,103 26,102 27,101 28,102 29,101 30,100 31,99 32,100 33,99 34,100 35,99 36,98 37,97 38,98 39,99 40,100 41,99 42,100 43,99 44,100 45,99 46,98 47,99 48,100 49,101 50,100 51,101 52,102 53,103 54,102 55,101 56,102 57,103 58,104 59,103 60,102 61,103 62,102 63,103 64,102 65,103 66,104 67,105 68,104 69,103 70,102 71,103 72,104 73,105 74,106 75,105 76,104 77,105 78,106 79,107 80,106 81,105 82,104 83,103 84,102 85,103 86,104 87,103 88,104 89,103 90,102 91,101 92,102 93,103 94,104 95,105 96,106 97,107 98,108 99,107 100,106 101,105 102,106 103,107 104,108 105,107 106,108 107,109 108,110 109,109 110,108 111,107 112,106 113,107 114,108 115,109 116,110 117,111 118,112 119,113 120,112 121,111 122,112 123,111 124,112 125,111 126,112 127,113 128,112 129,111 130,112 131,113 132,112 133,111 134,112 135,113 136,114 137,115 138,116 139,115 140,114 141,113 142,112 143,111 144,110 145,111 146,112 147,111 148,110 149,109 150,110 151,109 152,108 153,109 154,110 155,109 156,108 157,109 158,108 159,107 160,108 161,109 162,110 163,109 164,108 165,107 166,108 167,107 168,108 169,107 170,108 171,107 172,108 173,109 174,110 175,109 176,108 177,107 178,108 179,109 180,110 181,111 182,110 183,111 184,112 185,113 186,112 187,111 188,112 189,111 190,112 191,111 192,110 193,111 194,110 195,111 196,112 197,113 198,114 199,115 200,114 201,113 202,112 203,113 204,114 205,115 206,116 207,117 208,116 209,117 210,116 211,115 212,114 213,113 214,112 215,111 216,110 217,111 218,112 219,111 220,110 221,111 222,112 223,113 224,114 225,113 226,114 227,115 228,114 229,115 230,116 231,117 232,118 233,117 234,116 235,117 236,116 237,117 238,118 239,119 240,120 241,119 242,118 243,119 244,118 245,119 246,118 247,119 248,118 249,117 250,118 251,119 252,120 253,121 254,120 255,119 256,118 257,117 258,116 259,115 260,114 261,113 262,112 263,113 264,112 265,111 266,112 267,113 268,114 269,115 270,114 271,113 272,112 273,113 274,114 275,115 276,114 277,115 278,114 279,113 280,114 281,113 282,112 283,113 284,114 285,115 286,116 287,115 288,114 289,113 290,114 291,115 292,116 293,117 294,116 295,115 296,116 297,117 298,116 299,115 300,116 301,117 302,116 303,115 304,114 305,113 306,112 307,111 308,110 309,111 310,110 311,111 312,110 313,109 314,108 315,107 316,108 317,109 318,110 319,111 320,110 321,111 322,110 323,111 324,112 325,113 326,112 327,113 328,114 329,115 330,114 331,113 332,112 333,113 334,114 335,113 336,114 337,115 338,116 339,115 340,114 341,115 342,116 343,117 344,116 345,117 346,116 347,117 348,116 349,117 350,116 351,115 352,114 353,115 354,116 355,115 356,114 357,113 358,114 359,113 360,114 361,113 362,114 363,115 364,114 365,115 366,114 367,115 368,116 369,115 370,114 371,113 372,114 373,115 374,114 375,115 376,116 377,117 378,118 379,119 380,120 381,121 382,120 383,121 384,120 385,119 386,118 387,117 388,118 389,119 390,120 391,119 392,120 393,121 394,120 395,119 396,118 397,119 398,118 399,119 400,200 " style ="fill:rgb(147,139,240);stroke:rgb(47,39,140)"></polygon><polygon points ="0,200 0,100 1,101 2,102 3,103 4,102 5,103 6,102 7,103 8,104 9,105 10,104 11,105 12,106 13,105 14,104 15,105 16,106 17,105 18,106 19,107 20,108 21,107 22,106 23,105 24,104 25,105 26,106 27,107 28,108 29,107 30,108 31,109 32,110 33,109 34,110 35,111 36,112 37,111 38,112 39,113 40,114 41,113 42,112 43,113 44,114 45,115 46,114 47,113 48,112 49,113 50,114 51,115 52,114 53,115 54,116 55,115 56,116 57,117 58,116 59,117 60,118 61,119 62,118 63,117 64,116 65,117 66,116 67,117 68,116 69,117 70,118 71,119 72,118 73,117 74,116 75,117 76,116 77,117 78,118 79,119 80,118 81,117 82,118 83,119 84,118 85,119 86,120 87,119 88,118 89,119 90,118 91,117 92,118 93,119 94,120 95,119 96,120 97,119 98,118 99,119 100,120 101,121 102,120 103,119 104,118 105,119 106,118 107,117 108,116 109,117 110,116 111,117 112,118 113,117 114,116 115,117 116,116 117,115 118,116 119,115 120,116 121,115 122,116 123,115 124,114 125,113 126,114 127,113 128,114 129,115 130,114 131,115 132,114 133,113 134,112 135,111 136,112 137,111 138,110 139,109 140,108 141,107 142,106 143,105 144,104 145,103 146,102 147,103 148,104 149,105 150,106 151,105 152,106 153,105 154,104 155,103 156,102 157,103 158,102 159,101 160,102 161,103 162,104 163,105 164,106 165,105 166,106 167,107 168,106 169,105 170,106 171,107 172,106 173,105 174,104 175,103 176,102 177,103 178,102 179,101 180,102 181,103 182,102 183,103 184,102 185,103 186,104 187,105 188,104 189,105 190,106 191,105 192,106 193,105 194,106 195,107 196,106 197,105 198,104 199,103 200,102 201,103 202,102 203,101 204,102 205,103 206,104 207,105 208,106 209,105 210,104 211,105 212,104 213,103 214,104 215,105 216,106 217,105 218,104 219,105 220,106 221,105 222,104 223,105 224,106 225,105 226,104 227,103 228,102 229,103 230,102 231,101 232,102 233,103 234,104 235,103 236,102 237,101 238,102 239,101 240,100 241,99 242,98 243,97 244,98 245,99 246,98 247,99 248,100 249,99 250,100 251,101 252,100 253,99 254,100 255,99 256,98 257,97 258,98 259,97 260,98 261,99 262,100 263,101 264,100 265,99 266,98 267,99 268,98 269,97 270,98 271,97 272,96 273,95 274,94 275,93 276,94 277,93 278,94 279,93 280,92 281,93 282,92 283,91 284,90 285,91 286,92 287,93 288,94 289,95 290,96 291,95 292,94 293,93 294,92 295,93 296,94 297,95 298,94 299,95 300,94 301,95 302,94 303,95 304,96 305,95 306,94 307,95 308,94 309,95 310,94 311,93 312,92 313,93 314,94 315,95 316,94 317,93 318,94 319,93 320,92 321,93 322,92 323,91 324,90 325,91 326,92 327,93 328,92 329,93 330,92 331,93 332,94 333,95 334,94 335,93 336,94 337,93 338,92 339,93 340,92 341,91 342,92 343,93 344,92 345,93 346,94 347,95 348,94 349,93 350,94 351,93 352,94 353,95 354,94 355,95 356,96 357,95 358,94 359,93 360,92 361,91 362,90 363,89 364,88 365,89 366,90 367,89 368,88 369,89 370,90 371,91 372,90 373,91 374,90 375,89 376,88 377,87 378,86 379,87 380,88 381,87 382,88 383,87 384,88 385,89 386,88 387,87 388,88 389,87 390,88 391,87 392,86 393,87 394,86 395,85 396,86 397,85 398,84 399,85 400,200 " style ="fill:rgb(223,10,25);stroke:rgb(123,0,0)"></polygon><polygon points ="0,200 0,100 1,101 2,100 3,99 4,98 5,99 6,100 7,101 8,100 9,99 10,98 11,99 12,100 13,99 14,98 15,97 16,96 17,95 18,94 19,93 20,94 21,95 22,96 23,95 24,94 25,95 26,96 27,97 28,98 29,97 30,96 31,97 32,96 33,97 34,98 35,97 36,98 37,97 38,96 39,97 40,96 41,97 42,96 43,97 44,96 45,97 46,96 47,97 48,98 49,99 50,98 51,97 52,96 53,95 54,94 55,93 56,92 57,93 58,92 59,91 60,90 61,91 62,92 63,93 64,94 65,95 66,96 67,95 68,94 69,95 70,94 71,95 72,96 73,97 74,98 75,99 76,100 77,99 78,100 79,101 80,100 81,101 82,100 83,99 84,98 85,99 86,100 87,99 88,98 89,99 90,100 91,101 92,100 93,101 94,100 95,101 96,102 97,103 98,102 99,101 100,100 101,99 102,100 103,101 104,102 105,103 106,102 107,101 108,102 109,101 110,102 111,103 112,102 113,101 114,102 115,101 116,102 117,101 118,100 119,99 120,98 121,97 122,98 123,99 124,100 125,99 126,98 127,99 128,100 129,101 130,102 131,103 132,104 133,105 134,104 135,103 136,104 137,103 138,104 139,105 140,104 141,103 142,104 143,105 144,104 145,105 146,104 147,103 148,102 149,101 150,102 151,101 152,102 153,103 154,102 155,101 156,100 157,101 158,102 159,101 160,100 161,99 162,100 163,101 164,102 165,101 166,100 167,101 168,100 169,101 170,100 171,99 172,98 173,99 174,98 175,99 176,98 177,97 178,96 179,97 180,96 181,95 182,94 183,95 184,94 185,95 186,96 187,95 188,94 189,93 190,94 191,95 192,94 193,95 194,96 195,97 196,98 197,97 198,98 199,99 200,98 201,97 202,96 203,97 204,98 205,97 206,96 207,95 208,94 209,95 210,94 211,95 212,96 213,95 214,96 215,97 216,98 217,99 218,98 219,99 220,100 221,101 222,102 223,101 224,100 225,99 226,100 227,99 228,98 229,99 230,98 231,97 232,98 233,97 234,96 235,97 236,96 237,97 238,98 239,97 240,98 241,97 242,98 243,97 244,96 245,95 246,96 247,97 248,96 249,97 250,98 251,97 252,98 253,99 254,98 255,99 256,100 257,101 258,102 259,101 260,100 261,99 262,98 263,97 264,98 265,99 266,98 267,99 268,98 269,97 270,98 271,97 272,96 273,97 274,96 275,97 276,96 277,97 278,98 279,97 280,96 281,97 282,96 283,95 284,94 285,95 286,94 287,95 288,96 289,97 290,96 291,97 292,98 293,99 294,98 295,99 296,100 297,101 298,100 299,101 300,102 301,101 302,102 303,101 304,102 305,101 306,102 307,103 308,104 309,103 310,104 311,103 312,102 313,101 314,102 315,103 316,104 317,103 318,104 319,105 320,104 321,105 322,104 323,103 324,102 325,101 326,102 327,101 328,100 329,101 330,102 331,103 332,104 333,105 334,104 335,103 336,102 337,101 338,102 339,101 340,102 341,103 342,104 343,105 344,104 345,103 346,102 347,101 348,102 349,101 350,100 351,101 352,100 353,101 354,100 355,99 356,98 357,99 358,98 359,97 360,98 361,97 362,96 363,95 364,96 365,95 366,96 367,95 368,94 369,95 370,94 371,93 372,92 373,91 374,90 375,89 376,88 377,87 378,86 379,85 380,86 381,87 382,86 383,87 384,86 385,87 386,88 387,89 388,90 389,89 390,90 391,91 392,90 393,89 394,90 395,89 396,88 397,87 398,86 399,85 400,200 " style ="fill:rgb(126,4,239);stroke:rgb(26,0,139)"></polygon><polygon points ="0,200 0,100 1,99 2,98 3,97 4,98 5,99 6,100 7,101 8,102 9,103 10,104 11,105 12,104 13,105 14,106 15,107 16,108 17,109 18,108 19,109 20,110 21,109 22,108 23,107 24,108 25,109 26,108 27,107 28,108 29,107 30,108 31,109 32,108 33,107 34,108 35,107 36,108 37,107 38,108 39,109 40,110 41,111 42,112 43,113 44,114 45,113 46,114 47,115 48,116 49,115 50,116 51,117 52,116 53,115 54,116 55,115 56,116 57,117 58,118 59,117 60,116 61,117 62,118 63,117 64,118 65,119 66,120 67,119 68,118 69,119 70,118 71,117 72,116 73,117 74,118 75,119 76,118 77,119 78,120 79,119 80,118 81,117 82,116 83,115 84,114 85,115 86,116 87,115 88,116 89,115 90,116 91,117 92,116 93,117 94,118 95,119 96,118 97,119 98,120 99,121 100,120 101,119 102,120 103,119 104,118 105,117 106,118 107,119 108,120 109,119 110,120 111,119 112,120 113,119 114,120 115,121 116,122 117,121 118,120 119,119 120,118 121,119 122,120 123,121 124,120 125,119 126,120 127,121 128,120 129,119 130,118 131,119 132,118 133,119 134,120 135,119 136,118 137,117 138,116 139,117 140,118 141,119 142,120 143,121 144,122 145,123 146,122 147,121 148,120 149,119 150,120 151,119 152,118 153,117 154,116 155,117 156,118 157,119 158,120 159,119 160,118 161,119 162,118 163,117 164,118 165,117 166,116 167,117 168,116 169,115 170,116 171,117 172,116 173,115 174,116 175,115 176,114 177,115 178,116 179,115 180,116 181,117 182,118 183,117 184,118 185,119 186,118 187,117 188,118 189,119 190,120 191,119 192,118 193,119 194,120 195,121 196,120 197,121 198,122 199,123 200,122 201,121 202,120 203,121 204,122 205,123 206,124 207,123 208,122 209,123 210,124 211,123 212,122 213,123 214,122 215,121 216,120 217,119 218,120 219,119 220,118 221,117 222,118 223,119 224,118 225,117 226,116 227,117 228,118 229,119 230,120 231,119 232,120 233,119 234,118 235,119 236,120 237,119 238,118 239,119 240,120 241,119 242,118 243,119 244,118 245,119 246,118 247,119 248,120 249,121 250,120 251,121 252,120 253,121 254,122 255,121 256,122 257,121 258,122 259,121 260,120 261,119 262,118 263,119 264,118 265,119 266,120 267,119 268,118 269,117 270,116 271,117 272,116 273,117 274,116 275,115 276,114 277,113 278,112 279,113 280,114 281,113 282,114 283,113 284,112 285,111 286,110 287,109 288,108 289,107 290,108 291,107 292,106 293,107 294,106 295,107 296,106 297,105 298,106 299,105 300,104 301,105 302,104 303,105 304,104 305,105 306,104 307,103 308,102 309,101 310,102 311,101 312,102 313,101 314,100 315,99 316,100 317,101 318,100 319,101 320,102 321,103 322,104 323,103 324,104 325,103 326,104 327,103 328,102 329,103 330,104 331,105 332,104 333,103 334,104 335,103 336,104 337,105 338,106 339,107 340,106 341,107 342,108 343,109 344,108 345,109 346,110 347,111 348,112 349,113 350,114 351,113 352,112 353,113 354,112 355,113 356,112 357,113 358,112 359,111 360,112 361,111 362,110 363,109 364,110 365,109 366,110 367,109 368,108 369,109 370,110 371,109 372,110 373,109 374,108 375,109 376,110 377,109 378,108 379,109 380,110 381,111 382,110 383,109 384,108 385,107 386,108 387,109 388,108 389,107 390,106 391,105 392,104 393,103 394,102 395,101 396,102 397,103 398,102 399,103 400,200 " style ="fill:rgb(147,92,150);stroke:rgb(47,0,50)"></polygon><polygon points ="0,200 0,100 1,101 2,100 3,101 4,100 5,101 6,102 7,103 8,102 9,101 10,102 11,101 12,102 13,103 14,102 15,103 16,104 17,105 18,104 19,105 20,104 21,105 22,106 23,105 24,106 25,107 26,106 27,107 28,106 29,107 30,108 31,107 32,108 33,109 34,110 35,111 36,112 37,113 38,112 39,113 40,112 41,113 42,114 43,113 44,112 45,113 46,114 47,115 48,114 49,113 50,112 51,113 52,112 53,111 54,110 55,111 56,112 57,113 58,112 59,113 60,114 61,115 62,116 63,117 64,118 65,117 66,116 67,117 68,118 69,117 70,116 71,117 72,118 73,119 74,118 75,119 76,120 77,121 78,122 79,121 80,120 81,119 82,118 83,117 84,116 85,115 86,114 87,115 88,116 89,115 90,116 91,115 92,114 93,115 94,116 95,117 96,118 97,117 98,118 99,119 100,118 101,119 102,120 103,121 104,122 105,123 106,124 107,125 108,124 109,125 110,124 111,125 112,126 113,127 114,126 115,125 116,126 117,127 118,128 119,127 120,126 121,125 122,126 123,127 124,126 125,127 126,128 127,127 128,126 129,125 130,126 131,125 132,126 133,127 134,126 135,127 136,128 137,127 138,128 139,127 140,128 141,127 142,128 143,129 144,130 145,131 146,130 147,129 148,128 149,129 150,130 151,129 152,130 153,131 154,132 155,133 156,134 157,135 158,136 159,137 160,136 161,137 162,138 163,137 164,138 165,137 166,136 167,135 168,134 169,133 170,134 171,135 172,134 173,135 174,134 175,135 176,136 177,135 178,136 179,137 180,138 181,139 182,138 183,137 184,138 185,137 186,136 187,135 188,134 189,133 190,134 191,135 192,136 193,137 194,138 195,137 196,136 197,135 198,136 199,135 200,134 201,133 202,134 203,135 204,134 205,133 206,134 207,135 208,134 209,135 210,134 211,135 212,134 213,133 214,134 215,135 216,136 217,135 218,134 219,135 220,134 221,133 222,134 223,133 224,132 225,131 226,132 227,133 228,134 229,135 230,136 231,135 232,136 233,135 234,136 235,135 236,134 237,135 238,136 239,137 240,136 241,137 242,138 243,139 244,138 245,137 246,138 247,139 248,138 249,137 250,138 251,139 252,138 253,139 254,140 255,139 256,138 257,139 258,140 259,141 260,142 261,141 262,142 263,141 264,140 265,139 266,138 267,137 268,136 269,137 270,138 271,137 272,136 273,135 274,134 275,135 276,134 277,135 278,134 279,133 280,134 281,133 282,132 283,131 284,132 285,131 286,130 287,129 288,130 289,131 290,132 291,131 292,130 293,129 294,130 295,129 296,128 297,129 298,128 299,127 300,126 301,125 302,126 303,125 304,126 305,127 306,126 307,127 308,126 309,125 310,126 311,127 312,126 313,125 314,124 315,123 316,122 317,121 318,120 319,121 320,122 321,121 322,122 323,123 324,122 325,123 326,122 327,121 328,122 329,121 330,120 331,121 332,122 333,123 334,124 335,123 336,124 337,125 338,126 339,127 340,126 341,125 342,124 343,125 344,126 345,127 346,128 347,127 348,128 349,129 350,128 351,129 352,130 353,129 354,128 355,129 356,128 357,127 358,128 359,127 360,126 361,125 362,124 363,125 364,126 365,127 366,126 367,127 368,126 369,125 370,124 371,125 372,124 373,125 374,126 375,125 376,126 377,127 378,128 379,127 380,128 381,127 382,128 383,127 384,126 385,125 386,124 387,123 388,122 389,121 390,120 391,119 392,120 393,121 394,120 395,119 396,120 397,119 398,120 399,121 400,200 " style ="fill:rgb(224,149,252);stroke:rgb(124,49,152)"></polygon><polygon points ="0,200 0,100 1,99 2,98 3,97 4,98 5,99 6,98 7,97 8,96 9,97 10,98 11,97 12,98 13,99 14,98 15,97 16,98 17,99 18,100 19,99 20,100 21,99 22,100 23,99 24,98 25,97 26,96 27,95 28,96 29,97 30,96 31,95 32,96 33,97 34,96 35,97 36,96 37,95 38,94 39,93 40,92 41,91 42,92 43,93 44,94 45,93 46,92 47,91 48,92 49,91 50,92 51,91 52,90 53,89 54,90 55,89 56,88 57,89 58,88 59,89 60,88 61,89 62,88 63,87 64,86 65,85 66,86 67,87 68,86 69,85 70,84 71,83 72,84 73,85 74,84 75,83 76,82 77,81 78,80 79,79 80,80 81,81 82,80 83,79 84,80 85,79 86,78 87,79 88,80 89,79 90,78 91,79 92,78 93,79 94,80 95,81 96,80 97,79 98,80 99,79 100,80 101,81 102,80 103,81 104,80 105,79 106,80 107,79 108,80 109,81 110,82 111,81 112,82 113,81 114,82 115,81 116,82 117,83 118,82 119,81 120,82 121,83 122,84 123,85 124,86 125,87 126,86 127,85 128,84 129,85 130,84 131,83 132,82 133,81 134,82 135,83 136,84 137,85 138,84 139,85 140,86 141,85 142,84 143,85 144,86 145,87 146,88 147,87 148,86 149,87 150,86 151,85 152,84 153,83 154,82 155,81 156,80 157,79 158,78 159,79 160,78 161,79 162,80 163,79 164,78 165,77 166,78 167,79 168,80 169,79 170,80 171,81 172,80 173,81 174,80 175,81 176,82 177,83 178,82 179,81 180,80 181,81 182,82 183,83 184,84 185,83 186,84 187,83 188,82 189,83 190,84 191,85 192,84 193,85 194,84 195,83 196,84 197,85 198,86 199,85 200,84 201,85 202,86 203,87 204,86 205,85 206,84 207,85 208,86 209,87 210,88 211,87 212,86 213,87 214,88 215,89 216,90 217,91 218,90 219,91 220,92 221,93 222,92 223,91 224,92 225,91 226,90 227,89 228,90 229,91 230,92 231,93 232,94 233,93 234,94 235,93 236,92 237,91 238,92 239,93 240,94 241,95 242,96 243,95 244,96 245,97 246,96 247,97 248,96 249,97 250,96 251,97 252,98 253,99 254,100 255,99 256,98 257,97 258,96 259,95 260,94 261,95 262,96 263,97 264,96 265,95 266,96 267,95 268,96 269,95 270,94 271,95 272,94 273,95 274,94 275,95 276,96 277,97 278,98 279,97 280,96 281,97 282,98 283,99 284,98 285,97 286,96 287,95 288,96 289,95 290,94 291,93 292,94 293,93 294,94 295,95 296,96 297,97 298,98 299,99 300,100 301,101 302,102 303,103 304,102 305,101 306,100 307,101 308,102 309,103 310,104 311,103 312,102 313,101 314,100 315,99 316,100 317,101 318,100 319,101 320,100 321,101 322,100 323,99 324,100 325,99 326,100 327,101 328,102 329,101 330,102 331,101 332,100 333,99 334,98 335,99 336,98 337,99 338,100 339,99 340,100 341,101 342,100 343,101 344,102 345,101 346,100 347,99 348,100 349,99 350,98 351,99 352,100 353,101 354,102 355,103 356,104 357,105 358,106 359,105 360,106 361,105 362,106 363,105 364,106 365,105 366,104 367,105 368,106 369,105 370,104 371,105 372,106 373,105 374,104 375,103 376,104 377,105 378,106 379,105 380,104 381,105 382,106 383,105 384,104 385,103 386,102 387,103 388,104 389,103 390,102 391,101 392,100 393,101 394,102 395,103 396,104 397,103 398,104 399,103 400,200 " style ="fill:rgb(218,221,182);stroke:rgb(118,121,82)"></polygon></svg>